<?xml version="1.0" encoding="UTF-8" standalone="no"?>
<!-- Generator: Adobe Illustrator 19.0.0, SVG Export Plug-In . SVG Version: 6.00 Build 0)  -->

<svg
   xmlns:dc="http://purl.org/dc/elements/1.1/"
   xmlns:cc="http://creativecommons.org/ns#"
   xmlns:rdf="http://www.w3.org/1999/02/22-rdf-syntax-ns#"
   xmlns:svg="http://www.w3.org/2000/svg"
   xmlns="http://www.w3.org/2000/svg"
   xmlns:sodipodi="http://sodipodi.sourceforge.net/DTD/sodipodi-0.dtd"
   xmlns:inkscape="http://www.inkscape.org/namespaces/inkscape"
   version="1.1"
   id="Layer_1"
   x="0px"
   y="0px"
   viewBox="0 0 25 25"
   xml:space="preserve"
   sodipodi:docname="myat.svg"
   inkscape:version="0.92.3 (2405546, 2018-03-11)"
   width="25"
   height="25"><metadata
   id="metadata39"><rdf:RDF><cc:Work
       rdf:about=""><dc:format>image/svg+xml</dc:format><dc:type
         rdf:resource="http://purl.org/dc/dcmitype/StillImage" /><dc:title></dc:title></cc:Work></rdf:RDF></metadata><defs
   id="defs37" /><sodipodi:namedview
   pagecolor="#ffffff"
   bordercolor="#666666"
   borderopacity="1"
   objecttolerance="10"
   gridtolerance="10"
   guidetolerance="10"
   inkscape:pageopacity="0"
   inkscape:pageshadow="2"
   inkscape:window-width="1920"
   inkscape:window-height="1001"
   id="namedview35"
   showgrid="false"
   inkscape:zoom="11.313708"
   inkscape:cx="-5.7509369"
   inkscape:cy="13.298177"
   inkscape:window-x="-9"
   inkscape:window-y="-9"
   inkscape:window-maximized="1"
   inkscape:current-layer="Layer_1" />
<path
   style="fill:#ff3f62;stroke-width:0.04882818"
   d="m 12.551981,-0.02370953 c -6.8924928,0 -12.49997433,5.60731993 -12.49997433,12.49974953 0,6.89263 5.60748153,12.50025 12.49997433,12.50025 0.62759,0 1.13638,-0.50879 1.13638,-1.13638 0,-0.62759 -0.50879,-1.13637 -1.13638,-1.13637 C 6.9126157,22.70354 2.3247161,18.11545 2.3247161,12.476 2.3246673,6.8367904 6.9126157,2.2489904 12.551981,2.2489904 c 5.639366,0 10.227267,4.5878 10.227267,10.2270096 v 2.84145 c 0,0.93994 -0.764846,1.70454 -1.704839,1.70454 -0.939845,0 -1.704445,-0.7646 -1.704445,-1.70454 V 12.476 c 0,-3.7596196 -3.058503,-6.8181696 -6.817934,-6.8181696 -3.7595279,0 -6.8180787,3.05855 -6.8180787,6.8181696 0,3.75981 3.0585508,6.8187 6.8180787,6.8187 1.964165,0 3.736677,-0.83531 4.981944,-2.16895 0.659523,1.28622 1.998392,2.16895 3.540435,2.16895 2.193268,0 3.977597,-1.78419 3.977597,-3.97725 V 12.476 C 25.051908,5.5836104 19.444474,-0.02370953 12.551981,-0.02370953 Z m 0,17.04569953 c -2.506352,0 -4.5453691,-2.0393 -4.5453691,-4.54599 0,-2.5064497 2.0390171,-4.5454596 4.5453691,-4.5454596 2.506304,0 4.545223,2.0390099 4.545223,4.5454596 0,2.50669 -2.039016,4.54599 -4.545223,4.54599 z"
   id="path2"
   inkscape:connector-curvature="0" />
<g
   id="g4"
   transform="translate(0,-487)">
</g>
<g
   id="g6"
   transform="translate(0,-487)">
</g>
<g
   id="g8"
   transform="translate(0,-487)">
</g>
<g
   id="g10"
   transform="translate(0,-487)">
</g>
<g
   id="g12"
   transform="translate(0,-487)">
</g>
<g
   id="g14"
   transform="translate(0,-487)">
</g>
<g
   id="g16"
   transform="translate(0,-487)">
</g>
<g
   id="g18"
   transform="translate(0,-487)">
</g>
<g
   id="g20"
   transform="translate(0,-487)">
</g>
<g
   id="g22"
   transform="translate(0,-487)">
</g>
<g
   id="g24"
   transform="translate(0,-487)">
</g>
<g
   id="g26"
   transform="translate(0,-487)">
</g>
<g
   id="g28"
   transform="translate(0,-487)">
</g>
<g
   id="g30"
   transform="translate(0,-487)">
</g>
<g
   id="g32"
   transform="translate(0,-487)">
</g>
</svg>