<?xml version="1.0" encoding="UTF-8" standalone="no"?>
<!-- Generator: Adobe Illustrator 19.0.0, SVG Export Plug-In . SVG Version: 6.00 Build 0)  -->

<svg
   xmlns:dc="http://purl.org/dc/elements/1.1/"
   xmlns:cc="http://creativecommons.org/ns#"
   xmlns:rdf="http://www.w3.org/1999/02/22-rdf-syntax-ns#"
   xmlns:svg="http://www.w3.org/2000/svg"
   xmlns="http://www.w3.org/2000/svg"
   xmlns:sodipodi="http://sodipodi.sourceforge.net/DTD/sodipodi-0.dtd"
   xmlns:inkscape="http://www.inkscape.org/namespaces/inkscape"
   version="1.1"
   id="Layer_1"
   x="0px"
   y="0px"
   viewBox="0 0 60 62"
   xml:space="preserve"
   sodipodi:docname="email.svg"
   width="60"
   height="62"
   inkscape:version="0.92.3 (2405546, 2018-03-11)"><metadata
   id="metadata911"><rdf:RDF><cc:Work
       rdf:about=""><dc:format>image/svg+xml</dc:format><dc:type
         rdf:resource="http://purl.org/dc/dcmitype/StillImage" /><dc:title></dc:title></cc:Work></rdf:RDF></metadata><defs
   id="defs909" /><sodipodi:namedview
   pagecolor="#ffffff"
   bordercolor="#666666"
   borderopacity="1"
   objecttolerance="10"
   gridtolerance="10"
   guidetolerance="10"
   inkscape:pageopacity="0"
   inkscape:pageshadow="2"
   inkscape:window-width="1920"
   inkscape:window-height="1001"
   id="namedview907"
   showgrid="false"
   inkscape:zoom="6.4373109"
   inkscape:cx="17.92993"
   inkscape:cy="48.16435"
   inkscape:window-x="-9"
   inkscape:window-y="-9"
   inkscape:window-maximized="1"
   inkscape:current-layer="Layer_1" />
<path
   style="fill:#ffd15c;stroke-width:0.12151724"
   d="m 59.991101,59.42019 c 0,0.773932 -0.249984,1.418978 -0.749839,1.934883 C 58.741285,61.7421 58.241431,62 57.491466,62 H 2.4996329 C 1.8747845,62 1.2498164,61.74198 0.74984147,61.355073 0.24986657,60.83904 0,60.194122 0,59.42019 V 21.624096 h 59.991101 z"
   id="path864"
   inkscape:connector-curvature="0" />
<path
   style="fill:#f8b64c;stroke-width:0.12151724"
   d="M 59.241262,61.355073 C 58.741285,61.7421 58.241431,62 57.491466,62 H 2.4996329 C 1.8747845,62 1.2498164,61.74198 0.74984147,61.355073 L 29.99549,35.42684 Z"
   id="path866"
   inkscape:connector-curvature="0" />
<path
   style="fill:#40596b;stroke-width:0.12151724"
   d="M 59.991101,21.624096 51.492368,27.94493 31.62029,42.650608 c -0.999832,0.773932 -2.37464,0.773932 -3.374472,0 L 8.4987307,27.94493 0,21.624096 8.4987307,15.303268 26.996001,1.62966 28.370812,0.59770782 c 0.999832,-0.77393067 2.37464,-0.77393067 3.37447,0 l 1.374812,1.03195218 8.873713,6.5788471 4.374299,3.2248569 5.124262,3.869904 z"
   id="path868"
   inkscape:connector-curvature="0" />
<path
   style="fill:#f2f2f2;stroke-width:0.12151724"
   d="M 51.492368,9.6274849 V 27.94493 L 31.62029,42.650608 c -0.999832,0.773932 -2.37464,0.773932 -3.374472,0 L 8.4987307,27.94493 V 4.2095953 c 0,-1.4189766 1.1248234,-2.5799353 2.4996353,-2.5799353 h 32.62012 z"
   id="path870"
   inkscape:connector-curvature="0" />
<path
   style="fill:#cdd6e0;stroke-width:0.12151724"
   d="m 43.74348,7.5635866 c 0,1.1609587 0.874835,2.0638983 1.999657,2.0638983 H 51.49225 L 43.743359,1.62966 Z"
   id="path872"
   inkscape:connector-curvature="0" />
<path
   style="fill:#ff7058;stroke-width:0.12151724"
   d="m 37.369518,27.558024 h 1.999662 c -0.624848,1.418974 -1.624799,2.450927 -2.999607,3.224858 -1.499807,0.90294 -3.374472,1.289969 -5.624121,1.289969 -2.124652,0 -3.999436,-0.387029 -5.499243,-1.160961 -1.499805,-0.773932 -2.749621,-1.806002 -3.499464,-3.353866 -0.749842,-1.418978 -1.124825,-3.095974 -1.124825,-4.772847 0,-1.93489 0.374983,-3.611883 1.24982,-5.288879 0.874835,-1.676993 1.999657,-2.837954 3.499466,-3.611883 1.499802,-0.773931 3.249476,-1.160958 5.124261,-1.160958 1.624799,0 3.12448,0.387027 4.374299,1.03195 1.249817,0.644919 2.249646,1.547984 2.874615,2.837953 0.624847,1.160955 0.999831,2.579934 0.999831,3.99891 0,1.676996 -0.499976,3.224857 -1.499807,4.643838 -1.249816,1.806004 -2.874616,2.579936 -4.874274,2.579936 -0.499975,0 -0.999829,-0.129013 -1.249816,-0.25802 -0.249986,-0.258018 -0.499976,-0.516034 -0.499976,-0.902941 -0.74984,0.773932 -1.624799,1.160961 -2.624627,1.160961 -1.124824,0 -1.99966,-0.387029 -2.624628,-1.160961 -0.749844,-0.773931 -1.124821,-1.806004 -1.124821,-3.095975 0,-1.547988 0.374977,-2.966961 1.249817,-4.385938 0.999827,-1.547986 2.37464,-2.321917 3.999435,-2.321917 1.124824,0 1.999663,0.516036 2.624631,1.418979 l 0.249985,-1.160961 h 2.624627 l -1.499805,7.223769 c -0.124991,0.516039 -0.124991,0.773934 -0.124991,0.902945 0,0.129007 0,0.258018 0.124991,0.387027 0.124994,0.129007 0.124994,0.129007 0.249988,0.129007 0.249989,0 0.749844,-0.258016 1.249817,-0.644923 0.624848,-0.516036 1.249817,-1.160958 1.624799,-2.063899 0.374983,-0.90294 0.624848,-1.806004 0.624848,-2.708943 0,-1.676997 -0.624848,-3.095971 -1.74979,-4.127924 -1.124826,-1.160958 -2.749622,-1.676995 -4.874276,-1.676995 -1.749792,0 -3.249476,0.387025 -4.499291,1.160958 -1.249817,0.773934 -2.124656,1.806005 -2.749623,3.095975 -0.624969,1.289967 -0.874837,2.708942 -0.874837,4.256929 0,1.41898 0.374982,2.708945 0.999829,3.869903 0.749846,1.160961 1.6248,2.063898 2.874616,2.579936 1.249817,0.516039 2.624627,0.773932 4.249425,0.773932 1.499808,0 2.874616,-0.258017 3.99944,-0.644921 1.124826,-0.516159 1.999659,-1.161083 2.74962,-2.064023 z M 26.746016,23.430101 c 0,0.902939 0.124992,1.418978 0.499973,1.934891 0.374983,0.387027 0.749841,0.644922 1.249815,0.644922 0.374984,0 0.749846,-0.129007 0.999833,-0.258019 0.249988,-0.129008 0.499974,-0.387026 0.74984,-0.644921 0.374981,-0.387026 0.624969,-1.031951 0.874838,-1.806005 0.249987,-0.773932 0.374983,-1.547988 0.374983,-2.192907 0,-0.773934 -0.124996,-1.28997 -0.499975,-1.806005 -0.374984,-0.387028 -0.749846,-0.644922 -1.249818,-0.644922 -0.499973,0 -1.124823,0.258017 -1.499805,0.644922 -0.499976,0.387027 -0.874837,1.03195 -1.124824,1.934889 -0.249868,0.774174 -0.37486,1.548108 -0.37486,2.193155 z"
   id="path874"
   inkscape:connector-curvature="0" />
<g
   id="g876"
   transform="translate(0,-440.073)">
</g>
<g
   id="g878"
   transform="translate(0,-440.073)">
</g>
<g
   id="g880"
   transform="translate(0,-440.073)">
</g>
<g
   id="g882"
   transform="translate(0,-440.073)">
</g>
<g
   id="g884"
   transform="translate(0,-440.073)">
</g>
<g
   id="g886"
   transform="translate(0,-440.073)">
</g>
<g
   id="g888"
   transform="translate(0,-440.073)">
</g>
<g
   id="g890"
   transform="translate(0,-440.073)">
</g>
<g
   id="g892"
   transform="translate(0,-440.073)">
</g>
<g
   id="g894"
   transform="translate(0,-440.073)">
</g>
<g
   id="g896"
   transform="translate(0,-440.073)">
</g>
<g
   id="g898"
   transform="translate(0,-440.073)">
</g>
<g
   id="g900"
   transform="translate(0,-440.073)">
</g>
<g
   id="g902"
   transform="translate(0,-440.073)">
</g>
<g
   id="g904"
   transform="translate(0,-440.073)">
</g>
<flowRoot
   xml:space="preserve"
   id="flowRoot4624"
   style="font-style:normal;font-weight:normal;font-size:40px;line-height:1.25;font-family:sans-serif;letter-spacing:0px;word-spacing:0px;fill:#000000;fill-opacity:1;stroke:none"
   transform="translate(0,-440.073)"><flowRegion
     id="flowRegion4626"><rect
       id="rect4628"
       width="277.13434"
       height="118.6831"
       x="24.855099"
       y="259.73578" /></flowRegion><flowPara
     id="flowPara4630"></flowPara></flowRoot><flowRoot
   xml:space="preserve"
   id="flowRoot4632"
   style="font-style:normal;font-weight:normal;font-size:40px;line-height:1.25;font-family:sans-serif;letter-spacing:0px;word-spacing:0px;fill:#000000;fill-opacity:1;stroke:none"
   transform="translate(0,-440.073)"><flowRegion
     id="flowRegion4634"><rect
       id="rect4636"
       width="244.20134"
       height="70.837029"
       x="31.69025"
       y="259.11441" /></flowRegion><flowPara
     id="flowPara4638"></flowPara></flowRoot><flowRoot
   xml:space="preserve"
   id="flowRoot4640"
   style="font-style:normal;font-weight:normal;font-size:40px;line-height:1.25;font-family:sans-serif;letter-spacing:0px;word-spacing:0px;fill:#000000;fill-opacity:1;stroke:none"
   transform="translate(0,-440.073)"><flowRegion
     id="flowRegion4642"><rect
       id="rect4644"
       width="246.06548"
       height="65.244637"
       x="21.126835"
       y="256.00751" /></flowRegion><flowPara
     id="flowPara4646"></flowPara></flowRoot><flowRoot
   xml:space="preserve"
   id="flowRoot4648"
   style="font-style:normal;font-weight:normal;font-size:40px;line-height:1.25;font-family:sans-serif;letter-spacing:0px;word-spacing:0px;fill:#000000;fill-opacity:1;stroke:none"
   transform="translate(0,-440.073)"><flowRegion
     id="flowRegion4650"><rect
       id="rect4652"
       width="196.35529"
       height="52.195709"
       x="72.701164"
       y="322.4949" /></flowRegion><flowPara
     id="flowPara4654"></flowPara></flowRoot><flowRoot
   xml:space="preserve"
   id="flowRoot4656"
   style="font-style:normal;font-weight:normal;font-size:40px;line-height:1.25;font-family:sans-serif;letter-spacing:0px;word-spacing:0px;fill:#000000;fill-opacity:1;stroke:none"
   transform="translate(0,-440.073)"><flowRegion
     id="flowRegion4658"><rect
       id="rect4660"
       width="189.52013"
       height="50.952953"
       x="36.039894"
       y="183.30635" /></flowRegion><flowPara
     id="flowPara4662"></flowPara></flowRoot><flowRoot
   xml:space="preserve"
   id="flowRoot4664"
   style="font-style:normal;font-weight:normal;font-size:40px;line-height:1.25;font-family:sans-serif;letter-spacing:0px;word-spacing:0px;fill:#000000;fill-opacity:1;stroke:none"
   transform="translate(0,-440.073)"><flowRegion
     id="flowRegion4666"><rect
       id="rect4668"
       width="241.71584"
       height="82.021828"
       x="21.748211"
       y="321.25217" /></flowRegion><flowPara
     id="flowPara4670"></flowPara></flowRoot><flowRoot
   xml:space="preserve"
   id="flowRoot4672"
   style="font-style:normal;font-weight:normal;font-size:40px;line-height:1.25;font-family:sans-serif;letter-spacing:0px;word-spacing:0px;fill:#000000;fill-opacity:1;stroke:none"
   transform="translate(0,-440.073)"><flowRegion
     id="flowRegion4674"><rect
       id="rect4676"
       width="406.38086"
       height="305.71771"
       x="-54.059841"
       y="-8.0779076" /></flowRegion><flowPara
     id="flowPara4678"></flowPara></flowRoot></svg>